PathFileType  4	(X/Y/Z) C:\Users\antoi\Documents\MyRepositories\mobilecap\ResultsAnalysis
DataRate	CameraRate	NumFrames	NumMarkers	Units	OrigDataRate	OrigDataStartFrame	OrigNumFrames
100.0	100.0	4	51	mm	100.0	1211	1383
Frame#	Time	r_knee			r_shank_antsup			r_ankle			r_calc			r_5meta			r_toe			L_knee			L_shank_antsup			L_ankle			L_calc			L_5meta			L_toe			r_sh2			r_sh3			r_sh4			L_sh2			L_sh3			r_thigh1			r_thigh2			r_thigh3			r_thigh4			r_thigh5			L_thigh1			L_thigh2			L_thigh3			L_thigh4			r.ASIS			r.PSIS			L.ASIS			L.PSIS			C7			R_Shoulder			L_Shoulder			R_Sternum			L_Sternum			R_humerus			R_elbow_med			R_elbow_lat			R_forearm			R_wrist_radius			R_wrist_ulna			L_humerus			L_elbow_med			L_elbow_lat			L_forearm			L_wrist_radius			L_wrist_ulna			R_HJC			L_HJC			R_HJC_reg			L_HJC_reg			
		X1	Y1	Z1	X2	Y2	Z2	X3	Y3	Z3	X4	Y4	Z4	X5	Y5	Z5	X6	Y6	Z6	X7	Y7	Z7	X8	Y8	Z8	X9	Y9	Z9	X10	Y10	Z10	X11	Y11	Z11	X12	Y12	Z12	X13	Y13	Z13	X14	Y14	Z14	X15	Y15	Z15	X16	Y16	Z16	X17	Y17	Z17	X18	Y18	Z18	X19	Y19	Z19	X20	Y20	Z20	X21	Y21	Z21	X22	Y22	Z22	X23	Y23	Z23	X24	Y24	Z24	X25	Y25	Z25	X26	Y26	Z26	X27	Y27	Z27	X28	Y28	Z28	X29	Y29	Z29	X30	Y30	Z30	X31	Y31	Z31	X32	Y32	Z32	X33	Y33	Z33	X34	Y34	Z34	X35	Y35	Z35	X36	Y36	Z36	X37	Y37	Z37	X38	Y38	Z38	X39	Y39	Z39	X40	Y40	Z40	X41	Y41	Z41	X42	Y42	Z42	X43	Y43	Z43	X44	Y44	Z44	X45	Y45	Z45	X46	Y46	Z46	X47	Y47	Z47	X48	Y48	Z48	X49	Y49	Z49	X50	Y50	Z50	X51	Y51	Z51	

1211	12.10000000	-238.11824	481.61680	-445.47992	-240.13759	411.67549	-415.77842	-274.47380	104.63436	-431.97063	-338.16030	69.69900	-474.51355	-179.67942	44.75814	-387.81848	-127.65683	60.07666	-437.86538	-213.29468	479.87282	-794.99861	-194.87794	415.63905	-808.93347	-262.30178	109.59894	-813.55361	-334.92249	78.07347	-768.90439	-176.97136	42.51646	-843.10762	-124.13379	60.18659	-789.14632	-249.01084	298.33003	-403.44497	-308.91791	413.05573	-443.28220	-324.94167	298.27522	-435.34688	-282.82434	432.85002	-816.92883	-291.43348	311.67415	-830.83879	-165.50710	785.48956	-472.06390	-161.45456	675.11020	-451.55592	-213.34088	654.76982	-414.09363	-266.87003	789.69538	-420.44750	-267.68313	672.56110	-419.97588	-153.79792	764.48481	-791.93798	-146.03038	626.38191	-794.96808	-268.78361	760.38930	-815.04922	-253.00799	620.02921	-813.78736	-174.41501	934.57865	-489.90789	-350.17451	955.41795	-576.82076	-152.94400	929.52163	-744.75039	-342.80351	951.78865	-684.38633	-256.75546	1413.49619	-597.99272	-197.86683	1359.99236	-447.72516	-206.36059	1379.81778	-762.15191	-132.89840	1339.41377	-583.42315	-134.59193	1342.64493	-629.72576	-294.71615	1151.43381	-370.10622	-352.47750	1057.41263	-433.15188	-346.60995	1083.77566	-356.71731	-239.20991	1030.82062	-347.44466	-138.79229	980.62581	-354.50360	-158.60854	941.42429	-346.27889	-205.34676	1262.60033	-834.79435	-312.27427	1062.49262	-807.16474	-307.50835	1079.43531	-877.97111	-194.08590	1043.40679	-867.67711	-90.67106	999.14048	-825.57721	-98.47761	963.70376	-836.01119	-239.29415	860.32014	-521.15983	-219.95197	859.44211	-720.51385	-234.91733	855.18067	-527.63682	-223.38241	849.50074	-695.97185	
1212	12.11000000	-238.76845	480.94458	-445.46302	-240.67034	411.00289	-415.63775	-274.77811	103.99608	-432.16164	-338.41257	68.85857	-474.62001	-179.77185	44.69164	-387.75005	-127.86112	60.10140	-437.80256	-214.98181	479.30485	-794.14314	-196.50455	415.21842	-808.17195	-262.87621	108.97075	-813.57254	-335.37580	76.85523	-768.81759	-177.15577	42.32846	-843.28599	-124.52106	60.33652	-789.31101	-249.53572	297.83787	-402.89734	-309.40168	412.31079	-443.36028	-325.16581	297.68504	-435.43124	-284.46404	432.10174	-815.96532	-292.90171	310.85821	-830.04526	-164.31415	785.26075	-470.24947	-160.86470	674.78003	-449.89669	-213.54718	654.58959	-413.00269	-266.61313	789.57195	-420.41268	-267.81114	672.38732	-420.08591	-152.09070	763.16676	-791.85438	-145.88766	625.04693	-794.87905	-267.22965	760.19409	-814.36741	-253.12617	619.72773	-812.57923	-172.63891	934.27638	-489.27053	-348.31669	953.50589	-577.06663	-150.47298	928.41883	-744.92020	-340.65884	949.57216	-684.57194	-259.69987	1412.72597	-597.61376	-199.50082	1359.51059	-447.71099	-209.16636	1379.23173	-762.41607	-134.89044	1339.45231	-583.73208	-136.76290	1342.61868	-629.83096	-293.95799	1150.01656	-369.50794	-351.57863	1055.65612	-432.08100	-345.34215	1082.07877	-355.59940	-237.36139	1030.19689	-346.98150	-136.50147	981.16102	-354.69643	-155.89202	941.63936	-346.45758	-206.62544	1261.62492	-834.45619	-311.20618	1060.14931	-806.37043	-306.82886	1077.20667	-877.13801	-192.88184	1042.94068	-867.16508	-88.77528	1000.30132	-825.22111	-96.02867	964.83935	-835.68520	-236.86434	859.42517	-520.81721	-217.07995	857.96392	-720.12400	-232.49397	853.99982	-527.01990	-220.46456	847.81959	-695.88600	
1213	12.12000000	-239.00728	479.96900	-445.51957	-240.70645	410.24212	-415.41459	-275.11114	103.29769	-432.37281	-338.67828	67.89108	-474.83697	-179.93954	44.59966	-387.77136	-128.03626	60.15204	-437.77390	-216.41078	478.47564	-793.26858	-197.84405	414.58887	-807.48042	-263.18230	108.36113	-814.15536	-335.87027	75.48533	-768.77863	-177.33893	42.12023	-843.42998	-124.91160	60.43853	-789.43122	-249.66993	297.23581	-402.48381	-309.50585	411.61873	-443.05208	-325.24473	297.05807	-435.35345	-285.82645	431.33882	-815.35416	-294.23501	310.02719	-829.30483	-163.00359	784.97497	-468.73073	-160.29453	674.27212	-448.12644	-213.81085	654.43747	-411.93247	-266.64997	789.33038	-420.45925	-268.03714	671.86669	-420.55584	-150.81888	761.81601	-791.84097	-145.82529	623.67933	-795.10506	-266.15457	759.82568	-813.74643	-253.28972	619.20224	-811.47086	-171.77460	933.57136	-488.34992	-346.80098	951.45909	-577.41646	-148.19470	927.16807	-744.83908	-338.85670	947.06769	-684.75261	-262.39721	1411.72170	-597.34443	-200.98989	1358.77155	-447.58576	-211.73598	1378.33925	-762.57024	-136.77021	1339.09562	-584.02061	-138.74626	1342.18467	-629.95985	-293.24409	1148.37115	-368.84130	-350.61364	1053.64296	-431.00270	-344.05521	1080.06260	-354.53011	-235.56961	1029.26147	-346.77806	-134.19811	981.38246	-354.99311	-153.18948	941.56681	-346.77143	-207.79295	1260.40870	-834.09873	-310.09498	1057.58621	-805.59659	-306.20544	1074.76678	-876.08258	-191.76779	1042.29268	-866.65452	-87.00215	1001.21715	-825.02171	-93.68910	965.70563	-835.64211	-235.14162	858.21260	-520.38764	-214.48525	856.30146	-719.60201	-230.80110	852.81818	-526.00867	-218.25976	845.88544	-695.45366	
1214	12.13000000	-238.85526	479.11965	-445.47116	-240.35378	409.50544	-415.13009	-275.44309	102.62190	-432.55123	-338.95885	66.85189	-475.05586	-180.19899	44.46169	-387.81583	-128.21674	60.22659	-437.79869	-217.61596	477.50339	-792.38764	-198.94135	413.78106	-806.81826	-263.62577	107.55482	-814.38951	-336.34263	74.03712	-768.81121	-177.53256	41.92084	-843.55341	-125.21693	60.48048	-789.43227	-249.55205	297.16658	-402.60602	-309.28839	411.07837	-442.60916	-325.25368	296.41432	-435.12056	-287.00389	430.48925	-814.79208	-295.18564	309.23403	-828.92678	-162.09708	784.70070	-466.94798	-159.80657	673.75596	-446.50612	-214.22189	654.01936	-411.62170	-266.90574	788.95856	-420.59477	-268.25931	671.39158	-420.87864	-149.98954	760.58335	-792.03759	-145.88615	622.47784	-795.45672	-265.52460	759.38091	-813.19070	-253.54565	618.50381	-810.33032	-171.21044	932.80835	-487.30041	-345.59711	949.30422	-577.88007	-146.04376	925.97222	-744.37622	-337.35369	944.42151	-685.18253	-264.80971	1410.58081	-597.16637	-202.43224	1357.87918	-447.33656	-214.05646	1377.23269	-762.58600	-138.46401	1338.41605	-584.19466	-140.53790	1341.46151	-630.05590	-292.51223	1146.49037	-368.28092	-349.52147	1051.38450	-429.91097	-342.74140	1077.85924	-353.48305	-233.76627	1028.07025	-346.70183	-131.94212	981.34799	-355.36794	-150.48014	941.29705	-347.16718	-208.87545	1258.95839	-833.73895	-309.08154	1055.00099	-804.72179	-305.66264	1072.26076	-875.06039	-190.74648	1041.48353	-866.10600	-85.37579	1001.90694	-824.88828	-91.52784	966.28978	-835.81777	-233.77095	856.93455	-519.91184	-211.95572	854.62603	-718.99945	-229.33057	851.72858	-524.79778	-216.28086	843.99930	-694.66291	
